<?xml version="1.0" encoding="UTF-8"?>
<svg xmlns="http://www.w3.org/2000/svg"
     xmlns:xlink="http://www.w3.org/1999/xlink"
     version="1.2"
     width="203.2mm" height="203.2mm" viewBox="0 0 203.2 203.2"
     stroke="none"
     fill="#000000"
     stroke-width="0.3"
     font-size="3.88"
>
<g stroke-width="1.34" stroke="#BBBBBB" id="fig-c724c83652304a95847b8ab288217851-element-1">
  <g stroke-width="1.34" stroke="#BBBBBB" id="fig-c724c83652304a95847b8ab288217851-element-2">
    <path fill="none" d="M112.45,35.3 L 115.84 24.46"/>
    <path fill="none" d="M106.27,30.58 L 115.84 24.46"/>
    <path fill="none" d="M16.93,153.93 L 115.84 24.46"/>
  </g>
  <g stroke-width="1.34" stroke="#BBBBBB" id="fig-c724c83652304a95847b8ab288217851-element-3">
    <path fill="none" d="M20.82,69.41 L 16.93 58.74"/>
    <path fill="none" d="M13.05,69.41 L 16.93 58.74"/>
    <path fill="none" d="M16.93,153.93 L 16.93 58.74"/>
  </g>
  <g stroke-width="1.34" stroke="#BBBBBB" id="fig-c724c83652304a95847b8ab288217851-element-4">
    <path fill="none" d="M32.25,62.92 L 22.68 56.8"/>
    <path fill="none" d="M26.07,67.64 L 22.68 56.8"/>
    <path fill="none" d="M121.59,186.27 L 22.68 56.8"/>
  </g>
  <g stroke-width="1.34" stroke="#BBBBBB" id="fig-c724c83652304a95847b8ab288217851-element-5">
    <path fill="none" d="M35.03,144.27 L 25.98 151.13"/>
    <path fill="none" d="M37.32,151.69 L 25.98 151.13"/>
    <path fill="none" d="M186.27,101.6 L 25.98 151.13"/>
  </g>
  <path fill="none" d="M130.73,167.9 L 127.33 178.74"/>
  <path fill="none" d="M136.9,172.62 L 127.33 178.74"/>
  <path fill="none" d="M186.27,101.6 L 127.33 178.74"/>
</g>
<g stroke="#BBBBBB" fill="#87CEEB" id="fig-c724c83652304a95847b8ab288217851-element-6">
  <circle cx="186.27" cy="101.6" r="9.47"/>
  <g stroke="#BBBBBB" fill="#87CEEB" id="fig-c724c83652304a95847b8ab288217851-element-7">
    <circle cx="121.59" cy="16.93" r="9.47"/>
  </g>
  <g stroke="#BBBBBB" fill="#87CEEB" id="fig-c724c83652304a95847b8ab288217851-element-8">
    <circle cx="16.93" cy="49.27" r="9.47"/>
  </g>
  <g stroke="#BBBBBB" fill="#87CEEB" id="fig-c724c83652304a95847b8ab288217851-element-9">
    <circle cx="16.93" cy="153.93" r="9.47"/>
  </g>
  <g stroke="#BBBBBB" fill="#87CEEB" id="fig-c724c83652304a95847b8ab288217851-element-10">
    <circle cx="121.59" cy="186.27" r="9.47"/>
  </g>
</g>
<g font-size="16" stroke="#000000" stroke-opacity="0.000" fill="#000000" id="fig-c724c83652304a95847b8ab288217851-element-11">
  <text x="186.27" y="101.6" text-anchor="middle" dy="0.35em">1</text>
  <g font-size="16" stroke="#000000" stroke-opacity="0.000" fill="#000000" id="fig-c724c83652304a95847b8ab288217851-element-12">
    <text x="121.59" y="16.93" text-anchor="middle" dy="0.35em">5</text>
  </g>
  <g font-size="16" stroke="#000000" stroke-opacity="0.000" fill="#000000" id="fig-c724c83652304a95847b8ab288217851-element-13">
    <text x="16.93" y="49.27" text-anchor="middle" dy="0.35em">4</text>
  </g>
  <g font-size="16" stroke="#000000" stroke-opacity="0.000" fill="#000000" id="fig-c724c83652304a95847b8ab288217851-element-14">
    <text x="16.93" y="153.93" text-anchor="middle" dy="0.35em">3</text>
  </g>
  <g font-size="16" stroke="#000000" stroke-opacity="0.000" fill="#000000" id="fig-c724c83652304a95847b8ab288217851-element-15">
    <text x="121.59" y="186.27" text-anchor="middle" dy="0.35em">2</text>
  </g>
</g>
</svg>
