<?xml version="1.0" encoding="UTF-8"?>
<svg xmlns="http://www.w3.org/2000/svg"
     xmlns:xlink="http://www.w3.org/1999/xlink"
     version="1.2"
     width="203.2mm" height="203.2mm" viewBox="0 0 203.2 203.2"
     stroke="none"
     fill="#000000"
     stroke-width="0.3"
     font-size="3.88"
>
<g stroke-width="1.34" stroke="#BBBBBB" id="fig-e1a5676414284b68bc51dab894f81519-element-1">
  <g stroke-width="1.34" stroke="#BBBBBB" id="fig-e1a5676414284b68bc51dab894f81519-element-2">
    <path fill="none" d="M101.42,69.31 L 111.41 74.74"/>
    <path fill="none" d="M107.25,64.17 L 111.41 74.74"/>
    <path fill="none" d="M87.1,47.24 L 111.41 74.74"/>
  </g>
  <g stroke-width="1.34" stroke="#BBBBBB" id="fig-e1a5676414284b68bc51dab894f81519-element-3">
    <path fill="none" d="M22.54,166.54 L 21.2 177.82"/>
    <path fill="none" d="M29.48,170.04 L 21.2 177.82"/>
    <path fill="none" d="M87.1,47.24 L 21.2 177.82"/>
  </g>
  <g stroke-width="1.34" stroke="#BBBBBB" id="fig-e1a5676414284b68bc51dab894f81519-element-4">
    <path fill="none" d="M18.17,165.79 L 19.29 177.1"/>
    <path fill="none" d="M25.7,167.72 L 19.29 177.1"/>
    <path fill="none" d="M60.37,16.93 L 19.29 177.1"/>
  </g>
  <g stroke-width="1.34" stroke="#BBBBBB" id="fig-e1a5676414284b68bc51dab894f81519-element-5">
    <path fill="none" d="M106.7,53.28 L 95.45 51.69"/>
    <path fill="none" d="M103.04,60.14 L 95.45 51.69"/>
    <path fill="none" d="M186.27,100.07 L 95.45 51.69"/>
  </g>
  <path fill="none" d="M79.32,24.79 L 68.27 22.15"/>
  <path fill="none" d="M75.03,31.27 L 68.27 22.15"/>
  <path fill="none" d="M186.27,100.07 L 68.27 22.15"/>
</g>
<g stroke="#BBBBBB" fill="#87CEEB" id="fig-e1a5676414284b68bc51dab894f81519-element-6">
  <circle cx="186.27" cy="100.07" r="9.47"/>
  <g stroke="#BBBBBB" fill="#87CEEB" id="fig-e1a5676414284b68bc51dab894f81519-element-7">
    <circle cx="117.68" cy="81.83" r="9.47"/>
  </g>
  <g stroke="#BBBBBB" fill="#87CEEB" id="fig-e1a5676414284b68bc51dab894f81519-element-8">
    <circle cx="16.93" cy="186.27" r="9.47"/>
  </g>
  <g stroke="#BBBBBB" fill="#87CEEB" id="fig-e1a5676414284b68bc51dab894f81519-element-9">
    <circle cx="87.1" cy="47.24" r="9.47"/>
  </g>
  <g stroke="#BBBBBB" fill="#87CEEB" id="fig-e1a5676414284b68bc51dab894f81519-element-10">
    <circle cx="60.37" cy="16.93" r="9.47"/>
  </g>
</g>
<g font-size="16" stroke="#000000" stroke-opacity="0.000" fill="#000000" id="fig-e1a5676414284b68bc51dab894f81519-element-11">
  <text x="186.27" y="100.07" text-anchor="middle" dy="0.35em">1</text>
  <g font-size="16" stroke="#000000" stroke-opacity="0.000" fill="#000000" id="fig-e1a5676414284b68bc51dab894f81519-element-12">
    <text x="117.68" y="81.83" text-anchor="middle" dy="0.35em">5</text>
  </g>
  <g font-size="16" stroke="#000000" stroke-opacity="0.000" fill="#000000" id="fig-e1a5676414284b68bc51dab894f81519-element-13">
    <text x="16.93" y="186.27" text-anchor="middle" dy="0.35em">4</text>
  </g>
  <g font-size="16" stroke="#000000" stroke-opacity="0.000" fill="#000000" id="fig-e1a5676414284b68bc51dab894f81519-element-14">
    <text x="87.1" y="47.24" text-anchor="middle" dy="0.35em">3</text>
  </g>
  <g font-size="16" stroke="#000000" stroke-opacity="0.000" fill="#000000" id="fig-e1a5676414284b68bc51dab894f81519-element-15">
    <text x="60.37" y="16.93" text-anchor="middle" dy="0.35em">2</text>
  </g>
</g>
</svg>
