<?xml version="1.0" encoding="UTF-8"?>
<svg xmlns="http://www.w3.org/2000/svg"
     xmlns:xlink="http://www.w3.org/1999/xlink"
     version="1.2"
     width="203.2mm" height="203.2mm" viewBox="0 0 203.2 203.2"
     stroke="none"
     fill="#000000"
     stroke-width="0.3"
     font-size="3.88"
>
<g stroke-width="0.95" stroke="#BBBBBB" id="fig-66684bc0c5cb45a6b607687d1266b8f9-element-1">
  <g stroke-width="0.95" stroke="#BBBBBB" id="fig-66684bc0c5cb45a6b607687d1266b8f9-element-2">
    <path fill="none" d="M32.85,40.65 L 25.55 44"/>
    <path fill="none" d="M33.3,46.13 L 25.55 44"/>
    <path fill="none" d="M170.54,32.28 L 25.55 44"/>
  </g>
  <g stroke-width="0.95" stroke="#BBBBBB" id="fig-66684bc0c5cb45a6b607687d1266b8f9-element-3">
    <path fill="none" d="M145.64,151.94 L 149.16 159.16"/>
    <path fill="none" d="M151.1,151.37 L 149.16 159.16"/>
    <path fill="none" d="M139.15,63.99 L 149.16 159.16"/>
  </g>
  <g stroke-width="0.95" stroke="#BBBBBB" id="fig-66684bc0c5cb45a6b607687d1266b8f9-element-4">
    <path fill="none" d="M150.01,172.48 L 153.68 179.63"/>
    <path fill="none" d="M155.46,171.79 L 153.68 179.63"/>
    <path fill="none" d="M139.15,63.99 L 153.68 179.63"/>
  </g>
  <g stroke-width="0.95" stroke="#BBBBBB" id="fig-66684bc0c5cb45a6b607687d1266b8f9-element-5">
    <path fill="none" d="M171.77,72.06 L 179.66 70.56"/>
    <path fill="none" d="M172.65,66.64 L 179.66 70.56"/>
    <path fill="none" d="M139.15,63.99 L 179.66 70.56"/>
  </g>
  <g stroke-width="0.95" stroke="#BBBBBB" id="fig-66684bc0c5cb45a6b607687d1266b8f9-element-6">
    <path fill="none" d="M72.46,21.76 L 64.56 20.32"/>
    <path fill="none" d="M69.68,26.5 L 64.56 20.32"/>
    <path fill="none" d="M139.15,63.99 L 64.56 20.32"/>
  </g>
  <g stroke-width="0.95" stroke="#BBBBBB" id="fig-66684bc0c5cb45a6b607687d1266b8f9-element-7">
    <path fill="none" d="M30.7,75.43 L 23.57 79.13"/>
    <path fill="none" d="M31.41,80.88 L 23.57 79.13"/>
    <path fill="none" d="M139.15,63.99 L 23.57 79.13"/>
  </g>
  <g stroke-width="0.95" stroke="#BBBBBB" id="fig-66684bc0c5cb45a6b607687d1266b8f9-element-8">
    <path fill="none" d="M66.66,125.32 L 62.87 132.41"/>
    <path fill="none" d="M70.33,129.41 L 62.87 132.41"/>
    <path fill="none" d="M139.15,63.99 L 62.87 132.41"/>
  </g>
  <g stroke-width="0.95" stroke="#BBBBBB" id="fig-66684bc0c5cb45a6b607687d1266b8f9-element-9">
    <path fill="none" d="M90.57,89.67 L 85.49 95.88"/>
    <path fill="none" d="M93.38,94.39 L 85.49 95.88"/>
    <path fill="none" d="M139.15,63.99 L 85.49 95.88"/>
  </g>
  <g stroke-width="0.95" stroke="#BBBBBB" id="fig-66684bc0c5cb45a6b607687d1266b8f9-element-10">
    <path fill="none" d="M33.38,44.1 L 25.49 45.61"/>
    <path fill="none" d="M32.5,49.52 L 25.49 45.61"/>
    <path fill="none" d="M139.15,63.99 L 25.49 45.61"/>
  </g>
  <path fill="none" d="M162.47,44.33 L 165.83 37.04"/>
  <path fill="none" d="M158.57,40.47 L 165.83 37.04"/>
  <path fill="none" d="M139.15,63.99 L 165.83 37.04"/>
</g>
<g stroke="#BBBBBB" fill="#87CEEB" id="fig-66684bc0c5cb45a6b607687d1266b8f9-element-11">
  <circle cx="139.15" cy="63.99" r="6.69"/>
  <g stroke="#BBBBBB" fill="#87CEEB" id="fig-66684bc0c5cb45a6b607687d1266b8f9-element-12">
    <circle cx="149.86" cy="165.82" r="6.69"/>
  </g>
  <g stroke="#BBBBBB" fill="#87CEEB" id="fig-66684bc0c5cb45a6b607687d1266b8f9-element-13">
    <circle cx="154.51" cy="186.27" r="6.69"/>
  </g>
  <g stroke="#BBBBBB" fill="#87CEEB" id="fig-66684bc0c5cb45a6b607687d1266b8f9-element-14">
    <circle cx="186.27" cy="71.63" r="6.69"/>
  </g>
  <g stroke="#BBBBBB" fill="#87CEEB" id="fig-66684bc0c5cb45a6b607687d1266b8f9-element-15">
    <circle cx="58.78" cy="16.93" r="6.69"/>
  </g>
  <g stroke="#BBBBBB" fill="#87CEEB" id="fig-66684bc0c5cb45a6b607687d1266b8f9-element-16">
    <circle cx="16.93" cy="80" r="6.69"/>
  </g>
  <g stroke="#BBBBBB" fill="#87CEEB" id="fig-66684bc0c5cb45a6b607687d1266b8f9-element-17">
    <circle cx="57.89" cy="136.88" r="6.69"/>
  </g>
  <g stroke="#BBBBBB" fill="#87CEEB" id="fig-66684bc0c5cb45a6b607687d1266b8f9-element-18">
    <circle cx="79.73" cy="99.3" r="6.69"/>
  </g>
  <g stroke="#BBBBBB" fill="#87CEEB" id="fig-66684bc0c5cb45a6b607687d1266b8f9-element-19">
    <circle cx="18.88" cy="44.54" r="6.69"/>
  </g>
  <g stroke="#BBBBBB" fill="#87CEEB" id="fig-66684bc0c5cb45a6b607687d1266b8f9-element-20">
    <circle cx="170.54" cy="32.28" r="6.69"/>
  </g>
</g>
<g font-size="16" stroke="#000000" stroke-opacity="0.000" fill="#000000" id="fig-66684bc0c5cb45a6b607687d1266b8f9-element-21">
  <text x="139.15" y="63.99" text-anchor="middle" dy="0.35em">1</text>
  <g font-size="16" stroke="#000000" stroke-opacity="0.000" fill="#000000" id="fig-66684bc0c5cb45a6b607687d1266b8f9-element-22">
    <text x="149.86" y="165.82" text-anchor="middle" dy="0.35em">10</text>
  </g>
  <g font-size="16" stroke="#000000" stroke-opacity="0.000" fill="#000000" id="fig-66684bc0c5cb45a6b607687d1266b8f9-element-23">
    <text x="154.51" y="186.27" text-anchor="middle" dy="0.35em">9</text>
  </g>
  <g font-size="16" stroke="#000000" stroke-opacity="0.000" fill="#000000" id="fig-66684bc0c5cb45a6b607687d1266b8f9-element-24">
    <text x="186.27" y="71.63" text-anchor="middle" dy="0.35em">8</text>
  </g>
  <g font-size="16" stroke="#000000" stroke-opacity="0.000" fill="#000000" id="fig-66684bc0c5cb45a6b607687d1266b8f9-element-25">
    <text x="58.78" y="16.93" text-anchor="middle" dy="0.35em">7</text>
  </g>
  <g font-size="16" stroke="#000000" stroke-opacity="0.000" fill="#000000" id="fig-66684bc0c5cb45a6b607687d1266b8f9-element-26">
    <text x="16.93" y="80" text-anchor="middle" dy="0.35em">6</text>
  </g>
  <g font-size="16" stroke="#000000" stroke-opacity="0.000" fill="#000000" id="fig-66684bc0c5cb45a6b607687d1266b8f9-element-27">
    <text x="57.89" y="136.88" text-anchor="middle" dy="0.35em">5</text>
  </g>
  <g font-size="16" stroke="#000000" stroke-opacity="0.000" fill="#000000" id="fig-66684bc0c5cb45a6b607687d1266b8f9-element-28">
    <text x="79.73" y="99.3" text-anchor="middle" dy="0.35em">4</text>
  </g>
  <g font-size="16" stroke="#000000" stroke-opacity="0.000" fill="#000000" id="fig-66684bc0c5cb45a6b607687d1266b8f9-element-29">
    <text x="18.88" y="44.54" text-anchor="middle" dy="0.35em">3</text>
  </g>
  <g font-size="16" stroke="#000000" stroke-opacity="0.000" fill="#000000" id="fig-66684bc0c5cb45a6b607687d1266b8f9-element-30">
    <text x="170.54" y="32.28" text-anchor="middle" dy="0.35em">2</text>
  </g>
</g>
</svg>
